<?xml version="1.0" encoding="utf-8"?>
<!-- Generator: Adobe Illustrator 21.0.0, SVG Export Plug-In . SVG Version: 6.00 Build 0)  -->
<svg version="1.1" id="圖層_1" xmlns="http://www.w3.org/2000/svg" xmlns:xlink="http://www.w3.org/1999/xlink" x="0px" y="0px"
	 viewBox="0 0 20.4 15" style="enable-background:new 0 0 20.4 15;" xml:space="preserve">
<style type="text/css">
	.st0{fill:#5CC600;}
	.st1{fill:#C6C5C5;}
	.st2{display:none;}
	.st3{display:inline;}
	.st4{fill:#FFC000;}
	.st5{fill:#FF0000;}
</style>
<g id="圖層_1_2_">
	<g id="圖層_1_1_">
		<g>
			<ellipse class="st0" cx="4.5" cy="4.7" rx="3.8" ry="3.8"/>
			<path class="st0" d="M7.8,8.8C6.9,9.5,5.8,10,4.5,10S2.1,9.5,1.3,8.8C0.5,9.6,0,10.7,0,11.7l0,0l0,0V15h1.6h5.8H9v-3.3l0,0l0,0
				C9,10.7,8.5,9.6,7.8,8.8z"/>
		</g>
		<path class="st1" d="M9.4,8c0.4,0.1,0.7,0.2,1.1,0.2c1.9,0,3.6-1.6,3.6-3.6s-1.6-3.5-3.5-3.5c-0.6,0-1.3,0.2-1.9,0.5
			c0.8,0.7,1.3,1.8,1.3,3c0,1.1-0.4,2-1.1,2.8"/>
		<path class="st1" d="M14.7,11.6L14.7,11.6c0-1.2-0.5-2.3-1.1-3.1c-0.8,0.7-1.9,1.2-3,1.2c-0.4,0-0.7,0-0.9-0.1
			c0.3,0.6,0.4,1.3,0.4,2V15l0,0h3.2h1.5"/>
		<path class="st1" d="M15.2,8c0.4,0.1,0.7,0.2,1.1,0.2c1.9,0,3.6-1.6,3.6-3.6s-1.6-3.5-3.5-3.5c-0.6,0-1.3,0.2-1.9,0.5
			c0.8,0.7,1.3,1.8,1.3,3c0,1.1-0.4,2-1.1,2.8"/>
		<path class="st1" d="M20.4,11.6L20.4,11.6c0-1.2-0.5-2.3-1.1-3.1c-0.8,0.7-1.9,1.2-3,1.2c-0.4,0-0.7,0-0.9-0.1
			c0.3,0.6,0.4,1.3,0.4,2V15l0,0H19l1.4,0"/>
	</g>
</g>
<g id="圖層_2" class="st2">
	<g id="圖層_1_3_" class="st3">
		<g>
			<g>
				<ellipse class="st4" cx="4.5" cy="4.7" rx="3.8" ry="3.8"/>
				<path class="st4" d="M7.8,8.8C6.9,9.5,5.8,10,4.5,10S2.1,9.5,1.3,8.8C0.5,9.6,0,10.7,0,11.7l0,0l0,0V15h1.6h5.8H9v-3.3l0,0l0,0
					C9,10.7,8.5,9.6,7.8,8.8z"/>
			</g>
		</g>
		<path class="st4" d="M9.4,8c0.4,0.1,0.7,0.2,1.1,0.2c1.9,0,3.6-1.6,3.6-3.6s-1.6-3.5-3.5-3.5c-0.6,0-1.3,0.2-1.9,0.5
			c0.8,0.7,1.3,1.8,1.3,3c0,1.1-0.4,2-1.1,2.8"/>
		<path class="st4" d="M14.7,11.6L14.7,11.6c0-1.2-0.5-2.3-1.1-3.1c-0.8,0.7-1.9,1.2-3,1.2c-0.4,0-0.7,0-0.9-0.1
			c0.3,0.6,0.4,1.3,0.4,2V15l0,0h3.2h1.5"/>
		<path class="st1" d="M15.2,8c0.4,0.1,0.7,0.2,1.1,0.2c1.9,0,3.6-1.6,3.6-3.6s-1.6-3.5-3.5-3.5c-0.6,0-1.3,0.2-1.9,0.5
			c0.8,0.7,1.3,1.8,1.3,3c0,1.1-0.4,2-1.1,2.8"/>
		<path class="st1" d="M20.4,11.6L20.4,11.6c0-1.2-0.5-2.3-1.1-3.1c-0.8,0.7-1.9,1.2-3,1.2c-0.4,0-0.7,0-0.9-0.1
			c0.3,0.6,0.4,1.3,0.4,2V15l0,0H19l1.4,0"/>
	</g>
</g>
<g id="圖層_3" class="st2">
	<g id="圖層_1_4_" class="st3">
		<g>
			<g>
				<g>
					<ellipse class="st5" cx="4.5" cy="4.7" rx="3.8" ry="3.8"/>
					<path class="st5" d="M7.8,8.8C6.9,9.5,5.8,10,4.5,10S2.1,9.5,1.3,8.8C0.5,9.6,0,10.7,0,11.7l0,0l0,0V15h1.6h5.8H9v-3.3l0,0l0,0
						C9,10.7,8.5,9.6,7.8,8.8z"/>
				</g>
			</g>
			<g>
				<path class="st5" d="M9.4,8c0.4,0.1,0.7,0.2,1.1,0.2c1.9,0,3.6-1.6,3.6-3.6s-1.6-3.5-3.5-3.5c-0.6,0-1.3,0.2-1.9,0.5
					c0.8,0.7,1.3,1.8,1.3,3c0,1.1-0.4,2-1.1,2.8"/>
			</g>
			<g>
				<path class="st5" d="M14.7,11.6L14.7,11.6c0-1.2-0.5-2.3-1.1-3.1c-0.8,0.7-1.9,1.2-3,1.2c-0.4,0-0.7,0-0.9-0.1
					c0.3,0.6,0.4,1.3,0.4,2V15l0,0h3.2h1.5"/>
			</g>
			<path class="st5" d="M15.2,8c0.4,0.1,0.7,0.2,1.1,0.2c1.9,0,3.6-1.6,3.6-3.6s-1.6-3.5-3.5-3.5c-0.6,0-1.3,0.2-1.9,0.5
				c0.8,0.7,1.3,1.8,1.3,3c0,1.1-0.4,2-1.1,2.8"/>
			<path class="st5" d="M20.4,11.6L20.4,11.6c0-1.2-0.5-2.3-1.1-3.1c-0.8,0.7-1.9,1.2-3,1.2c-0.4,0-0.7,0-0.9-0.1
				c0.3,0.6,0.4,1.3,0.4,2V15l0,0H19l1.4,0"/>
		</g>
	</g>
</g>
</svg>
